<svg version="1.1" viewBox="0.0 0.0 602.503937007874 727.5984251968504" fill="none" stroke="none" stroke-linecap="square" stroke-miterlimit="10" xmlns:xlink="http://www.w3.org/1999/xlink" xmlns="http://www.w3.org/2000/svg"><clipPath id="p.0"><path d="m0 0l602.50397 0l0 727.59845l-602.50397 0l0 -727.59845z" clip-rule="nonzero"/></clipPath><g clip-path="url(#p.0)"><path fill="#000000" fill-opacity="0.0" d="m0 0l602.50397 0l0 727.59845l-602.50397 0z" fill-rule="evenodd"/><path fill="#98ff98" d="m48.616146 124.49096l114.24678 0l0 593.0882l-114.24678 0z" fill-rule="evenodd"/><path fill="#98ff98" d="m381.40765 406.9175l-71.59024 72.684845l-235.76833 -239.92729l71.59024 -72.68486z" fill-rule="evenodd"/><path fill="#37a85f" d="m195.30885 615.5345l0 0c0 -56.357788 47.33783 -102.0448 105.73201 -102.0448l0 0c28.04187 0 54.93521 10.751099 74.763824 29.888245c19.828583 19.137085 30.96817 45.09259 30.96817 72.156555l0 0c0 56.357788 -47.33783 102.0448 -105.731995 102.0448l0 0c-58.39418 0 -105.73201 -45.68701 -105.73201 -102.0448z" fill-rule="evenodd"/><path fill="#98ff98" d="m439.21954 322.18777l114.246765 0l0 395.39212l-114.246765 0z" fill-rule="evenodd"/><path fill="#98ff98" d="m502.92935 303.94708l32.73642 89.51007l-225.8482 86.14499l-32.73642 -89.51004z" fill-rule="evenodd"/><path fill="#37a85f" d="m390.61133 246.23544l0 0c0 -56.357803 47.33783 -102.044815 105.731995 -102.044815l0 0c28.04187 0 54.93524 10.751114 74.763855 29.88823c19.828552 19.137115 30.96814 45.09262 30.96814 72.156586l0 0c0 56.357788 -47.33783 102.04483 -105.731995 102.04483l0 0c-58.394165 0 -105.731995 -45.687042 -105.731995 -102.04483z" fill-rule="evenodd"/><path fill="#37a85f" d="m0.0063667283 102.0435l0 0c0 -56.357796 47.337833 -102.044815 105.73201 -102.044815l0 0c28.04187 0 54.935226 10.75112 74.763824 29.888235c19.828598 19.137115 30.968185 45.092617 30.968185 72.156586l0 0c0 56.357803 -47.33783 102.044815 -105.73201 102.044815l0 0c-58.394173 0 -105.73201 -45.68701 -105.73201 -102.044815z" fill-rule="evenodd"/></g></svg>